<mxfile host="app.diagrams.net" modified="2024-06-25T08:16:26.945Z" agent="Mozilla/5.0 (Windows NT 10.0; Win64; x64) AppleWebKit/537.36 (KHTML, like Gecko) Chrome/123.0.0.0 Safari/537.36 Edg/123.0.0.0" etag="6WTyeRmogLgEqgQf7gFZ" version="24.6.2" type="github">
  <diagram name="第 1 页" id="uUfwOSCB-X2ACATYkOCY">
    <mxGraphModel dx="1221" dy="822" grid="1" gridSize="10" guides="1" tooltips="1" connect="1" arrows="1" fold="1" page="1" pageScale="1" pageWidth="827" pageHeight="1169" math="0" shadow="0">
      <root>
        <mxCell id="0" />
        <mxCell id="1" parent="0" />
        <mxCell id="jm3E35w2ThpCihJ1iVVh-1" value="Diagram Heading" style="shape=umlFrame;whiteSpace=wrap;html=1;pointerEvents=0;recursiveResize=0;container=1;collapsible=0;width=160;" vertex="1" parent="1">
          <mxGeometry x="170" y="430" width="340" height="180" as="geometry" />
        </mxCell>
      </root>
    </mxGraphModel>
  </diagram>
</mxfile>
